# xmcd
# 
# Track frame offsets:
#     150
#     16220
#     32347
#     47296
#     63179
#     79073
#     96380
#     112080
#     128327
#     145874
#     162730
#     179839
#     199666
# 
# Disc length: 3022
# 
# Revision: 3
# Processed by: cddbd v1.5.2PL0 Copyright (c) Steve Scherf et al.
# Submitted via: fre:ac v1.0.31
# 
DISCID=a90bcc0d
DTITLE=The Boss Hoss - Black Is Beautiful
DYEAR=2018
DGENRE=Country-Rock
TTITLE0=Black Is Beautiful
TTITLE1=In Your Face
TTITLE2=A/Y/O
TTITLE3=Till I Want No More
TTITLE4=She
TTITLE5=Little Help
TTITLE6=Prison Of Passion
TTITLE7=Wrong Song
TTITLE8=Good Deed
TTITLE9=Road Fever
TTITLE10=Smile
TTITLE11=Cook It Up
TTITLE12=What Could Possibly Go Wrong
EXTD=Release-Date: 26.10.2018\n\nMARO\n
EXTT0=
EXTT1=
EXTT2=
EXTT3=
EXTT4=
EXTT5=
EXTT6=
EXTT7=
EXTT8=
EXTT9=
EXTT10=
EXTT11=
EXTT12=
PLAYORDER=
